<svg width="40" height="40" viewBox="0 0 40 40" fill="none" xmlns="http://www.w3.org/2000/svg">
<circle cx="20" cy="20" r="20" fill="#565F64"/>
<path d="M26.6051 24.726L23.1024 22.9748C22.772 22.8094 22.5667 22.4772 22.5667 22.1076V20.8679C22.6506 20.7652 22.739 20.6483 22.8303 20.5192C23.2846 19.8775 23.6487 19.1633 23.9134 18.3929C24.4308 18.1557 24.7667 17.6442 24.7667 17.0667V15.6C24.7667 15.2469 24.6347 14.9048 24.4 14.6375V12.6872C24.4205 12.4855 24.5012 11.2851 23.6329 10.2947C22.8798 9.4356 21.6577 9 20 9C18.3423 9 17.1202 9.4356 16.3671 10.2943C15.4988 11.2847 15.5795 12.4855 15.6 12.6872V14.6375C15.3653 14.9048 15.2333 15.2469 15.2333 15.6V17.0667C15.2333 17.5129 15.4361 17.9291 15.7822 18.2066C16.1181 19.5365 16.821 20.5386 17.0667 20.8602V22.0735C17.0667 22.4284 16.8731 22.754 16.5618 22.9242L13.2907 24.7084C12.227 25.2888 11.5667 26.4013 11.5667 27.6127V28.8C11.5667 30.5402 17.0832 31 20 31C22.9168 31 28.4333 30.5402 28.4333 28.8V27.6842C28.4333 26.4236 27.7326 25.2899 26.6051 24.726Z" fill="white"/>
</svg>