<svg width="18" height="18" viewBox="0 0 18 18" fill="none" xmlns="http://www.w3.org/2000/svg">
<g id="Icon/Outline/edit">
<path id="Mask" fill-rule="evenodd" clip-rule="evenodd" d="M12.0138 8.00904L9.9926 5.98779L11.4536 4.52604L13.4741 6.54654L12.0138 8.00904ZM6.80978 13.2185L4.57703 13.4218L4.77503 11.2048L8.98778 6.99202L11.0098 9.01402L6.80978 13.2185ZM14.5527 5.50329L14.5519 5.50254L12.4984 3.44904C11.9427 2.89479 10.9879 2.86854 10.4614 3.39729L3.71443 10.1443C3.46993 10.388 3.31843 10.712 3.28693 11.0548L3.00268 14.1823C2.98318 14.4035 3.06193 14.6225 3.21943 14.78C3.36118 14.9218 3.55243 14.9998 3.74968 14.9998C3.77293 14.9998 3.79543 14.999 3.81793 14.9968L6.94543 14.7125C7.28893 14.681 7.61218 14.5303 7.85593 14.2865L14.6037 7.53879C15.1497 6.99129 15.1264 6.07779 14.5527 5.50329Z" fill="#24292C"/>
</g>
</svg>
