<svg width="11" height="12" viewBox="0 0 11 12" fill="none" xmlns="http://www.w3.org/2000/svg">
<path d="M3.66535 5.40005H2.44357V6.59607H3.66535V5.40005ZM6.10892 5.40005H4.88713V6.59607H6.10892V5.40005ZM8.55248 5.40005H7.33169V6.59607H8.55347L8.55248 5.40005ZM9.77822 1.1999H9.16683V0H7.94209V1.1999H3.05495V0H1.83317V1.1999H1.22178C1.06161 1.1999 0.903024 1.23098 0.755122 1.29135C0.60722 1.35172 0.472921 1.4402 0.35994 1.5517C0.24696 1.66319 0.157524 1.79552 0.0967714 1.94106C0.0360185 2.08661 0.00514556 2.24251 0.00592623 2.39981L0 10.8001C0 11.1183 0.128723 11.4235 0.357852 11.6486C0.586981 11.8736 0.897746 12 1.22178 12H9.77822C10.1019 11.999 10.4121 11.8722 10.641 11.6474C10.8699 11.4226 10.999 11.118 11 10.8001V2.39981C10.999 2.08189 10.8699 1.77728 10.641 1.55248C10.4121 1.32767 10.1019 1.20093 9.77822 1.1999ZM9.77822 10.803H1.22178V4.20015H9.77822V10.803Z" fill="#95B4C1"/>
</svg>
