<svg width="19" height="19" viewBox="0 0 19 19" fill="none" xmlns="http://www.w3.org/2000/svg">
<g id="Icon/Outline/close">
<path id="Mask" fill-rule="evenodd" clip-rule="evenodd" d="M10.7854 9.2143L14.0737 5.91789C14.3732 5.61766 14.3732 5.13237 14.0737 4.83214C13.7742 4.53191 13.2901 4.53191 12.9906 4.83214L9.70238 8.12855L6.41413 4.83214C6.11464 4.53191 5.63055 4.53191 5.33106 4.83214C5.03157 5.13237 5.03157 5.61766 5.33106 5.91789L8.61932 9.2143L5.33106 12.5107C5.03157 12.8109 5.03157 13.2962 5.33106 13.5965C5.48042 13.7462 5.67651 13.8214 5.87259 13.8214C6.06868 13.8214 6.26476 13.7462 6.41413 13.5965L9.70238 10.3L12.9906 13.5965C13.14 13.7462 13.3361 13.8214 13.5322 13.8214C13.7283 13.8214 13.9243 13.7462 14.0737 13.5965C14.3732 13.2962 14.3732 12.8109 14.0737 12.5107L10.7854 9.2143Z" fill="#EB5757"/>
</g>
</svg>
