<svg width="18" height="18" viewBox="0 0 18 18" fill="none" xmlns="http://www.w3.org/2000/svg">
<g id="Icon/Outline/download">
<path id="Mask" fill-rule="evenodd" clip-rule="evenodd" d="M8.25213 9.05691C8.25072 9.03813 8.25 9.01915 8.25 9V3C8.25 2.586 8.58525 2.25 9 2.25C9.41475 2.25 9.75 2.586 9.75 3V8.99987L11.55 7.65C11.8815 7.40025 12.3518 7.4685 12.6 7.8C12.849 8.1315 12.7815 8.60175 12.45 8.85L9.45001 11.1C9.31726 11.1997 9.15826 11.25 9.00001 11.25C8.84926 11.25 8.69851 11.2042 8.56876 11.1135L5.56876 9.003C5.22976 8.7645 5.14801 8.2965 5.38651 7.95825C5.62501 7.61925 6.09226 7.5375 6.43126 7.776L8.25213 9.05691ZM4.5 12.75V13.5H13.5V12.75C13.5 12.3375 13.8375 12 14.25 12C14.6625 12 15 12.3375 15 12.75V14.25C15 14.6625 14.6625 15 14.25 15H3.75C3.3375 15 3 14.6625 3 14.25V12.75C3 12.3375 3.3375 12 3.75 12C4.1625 12 4.5 12.3375 4.5 12.75Z" fill="#24292C"/>
</g>
</svg>
