<svg width="295" height="50" viewBox="0 0 295 50" fill="none" xmlns="http://www.w3.org/2000/svg">
<rect width="50" height="50" rx="25" fill="#3A3AF4"/>
<path d="M17 33.75V18H21.5V24.75H28.25V18H32.75V33.75H28.25V27H21.5V33.75H17Z" fill="white"/>
<path d="M66.224 31.5V18.9H68.528V24.138H74.18V18.9H76.484V31.5H74.18V26.01H68.528V31.5H66.224ZM83.163 31.716C82.299 31.716 81.519 31.518 80.823 31.122C80.139 30.726 79.593 30.18 79.185 29.484C78.789 28.776 78.591 27.96 78.591 27.036C78.591 26.112 78.795 25.302 79.203 24.606C79.611 23.898 80.157 23.346 80.841 22.95C81.537 22.554 82.317 22.356 83.181 22.356C84.033 22.356 84.801 22.554 85.485 22.95C86.181 23.346 86.727 23.898 87.123 24.606C87.531 25.302 87.735 26.112 87.735 27.036C87.735 27.96 87.531 28.776 87.123 29.484C86.727 30.18 86.181 30.726 85.485 31.122C84.789 31.518 84.015 31.716 83.163 31.716ZM83.163 29.718C83.763 29.718 84.285 29.496 84.729 29.052C85.173 28.596 85.395 27.924 85.395 27.036C85.395 26.148 85.173 25.482 84.729 25.038C84.285 24.582 83.769 24.354 83.181 24.354C82.569 24.354 82.041 24.582 81.597 25.038C81.165 25.482 80.949 26.148 80.949 27.036C80.949 27.924 81.165 28.596 81.597 29.052C82.041 29.496 82.563 29.718 83.163 29.718ZM93.485 31.716C92.693 31.716 91.997 31.59 91.397 31.338C90.797 31.074 90.317 30.714 89.957 30.258C89.597 29.802 89.381 29.274 89.309 28.674H91.631C91.703 29.022 91.895 29.322 92.207 29.574C92.531 29.814 92.945 29.934 93.449 29.934C93.953 29.934 94.319 29.832 94.547 29.628C94.787 29.424 94.907 29.19 94.907 28.926C94.907 28.542 94.739 28.284 94.403 28.152C94.067 28.008 93.599 27.87 92.999 27.738C92.615 27.654 92.225 27.552 91.829 27.432C91.433 27.312 91.067 27.162 90.731 26.982C90.407 26.79 90.143 26.55 89.939 26.262C89.735 25.962 89.633 25.596 89.633 25.164C89.633 24.372 89.945 23.706 90.569 23.166C91.205 22.626 92.093 22.356 93.233 22.356C94.289 22.356 95.129 22.602 95.753 23.094C96.389 23.586 96.767 24.264 96.887 25.128H94.709C94.577 24.468 94.079 24.138 93.215 24.138C92.783 24.138 92.447 24.222 92.207 24.39C91.979 24.558 91.865 24.768 91.865 25.02C91.865 25.284 92.039 25.494 92.387 25.65C92.735 25.806 93.197 25.95 93.773 26.082C94.397 26.226 94.967 26.388 95.483 26.568C96.011 26.736 96.431 26.994 96.743 27.342C97.055 27.678 97.211 28.164 97.211 28.8C97.223 29.352 97.079 29.85 96.779 30.294C96.479 30.738 96.047 31.086 95.483 31.338C94.919 31.59 94.253 31.716 93.485 31.716ZM102.949 31.5C102.013 31.5 101.263 31.272 100.699 30.816C100.135 30.36 99.8528 29.55 99.8528 28.386V24.498H98.3228V22.572H99.8528L100.123 20.178H102.157V22.572H104.569V24.498H102.157V28.404C102.157 28.836 102.247 29.136 102.427 29.304C102.619 29.46 102.943 29.538 103.399 29.538H104.515V31.5H102.949ZM110.656 31.716C109.756 31.716 108.958 31.524 108.262 31.14C107.566 30.756 107.02 30.216 106.624 29.52C106.228 28.824 106.03 28.02 106.03 27.108C106.03 26.184 106.222 25.362 106.606 24.642C107.002 23.922 107.542 23.364 108.226 22.968C108.922 22.56 109.738 22.356 110.674 22.356C111.55 22.356 112.324 22.548 112.996 22.932C113.668 23.316 114.19 23.844 114.562 24.516C114.946 25.176 115.138 25.914 115.138 26.73C115.138 26.862 115.132 27 115.12 27.144C115.12 27.288 115.114 27.438 115.102 27.594H108.316C108.364 28.29 108.604 28.836 109.036 29.232C109.48 29.628 110.014 29.826 110.638 29.826C111.106 29.826 111.496 29.724 111.808 29.52C112.132 29.304 112.372 29.028 112.528 28.692H114.868C114.7 29.256 114.418 29.772 114.022 30.24C113.638 30.696 113.158 31.056 112.582 31.32C112.018 31.584 111.376 31.716 110.656 31.716ZM110.674 24.228C110.11 24.228 109.612 24.39 109.18 24.714C108.748 25.026 108.472 25.506 108.352 26.154H112.798C112.762 25.566 112.546 25.098 112.15 24.75C111.754 24.402 111.262 24.228 110.674 24.228ZM117.076 31.5V22.572H119.128L119.344 24.246C119.668 23.67 120.106 23.214 120.658 22.878C121.222 22.53 121.882 22.356 122.638 22.356V24.786H121.99C121.486 24.786 121.036 24.864 120.64 25.02C120.244 25.176 119.932 25.446 119.704 25.83C119.488 26.214 119.38 26.748 119.38 27.432V31.5H117.076Z" fill="white"/>
</svg>
