<svg width="12" height="12" viewBox="0 0 12 12" fill="none" xmlns="http://www.w3.org/2000/svg">
<path fill-rule="evenodd" clip-rule="evenodd" d="M7.76645 7.76645C7.26518 8.26718 6.62671 8.60806 5.93175 8.746C5.23679 8.88395 4.51653 8.81277 3.86202 8.54146C3.2075 8.27014 2.64812 7.81088 2.25456 7.22171C1.86101 6.63255 1.65096 5.93993 1.65096 5.23141C1.65096 4.52289 1.86101 3.83028 2.25456 3.24111C2.64812 2.65195 3.2075 2.19268 3.86202 1.92137C4.51653 1.65005 5.23679 1.57887 5.93175 1.71682C6.62671 1.85477 7.26518 2.19565 7.76645 2.69638C8.10205 3.02776 8.36852 3.42248 8.55039 3.85765C8.73226 4.29282 8.82591 4.75977 8.82591 5.23141C8.82591 5.70306 8.73226 6.17 8.55039 6.60517C8.36852 7.04034 8.10205 7.43506 7.76645 7.76645ZM10.908 10.464L8.42196 7.97788C9.13499 7.14993 9.4993 6.07782 9.43834 4.98686C9.37737 3.8959 8.89586 2.87105 8.09502 2.1277C7.29418 1.38436 6.23636 0.9804 5.14389 1.00073C4.05141 1.02106 3.00936 1.4641 2.23673 2.23673C1.4641 3.00936 1.02106 4.05141 1.00073 5.14389C0.9804 6.23636 1.38436 7.29418 2.1277 8.09502C2.87105 8.89586 3.8959 9.37737 4.98686 9.43834C6.07782 9.4993 7.14993 9.13499 7.97788 8.42195L10.464 10.908C10.4931 10.9372 10.5277 10.9603 10.5658 10.9761C10.6039 10.9919 10.6448 11 10.686 11C10.7272 11 10.7681 10.9919 10.8062 10.9761C10.8443 10.9603 10.8789 10.9372 10.908 10.908C10.9372 10.8789 10.9603 10.8443 10.9761 10.8062C10.9919 10.7681 11 10.7272 11 10.686C11 10.6448 10.9919 10.6039 10.9761 10.5658C10.9603 10.5277 10.9372 10.4931 10.908 10.464Z" stroke="#95B4C1"/>
</svg>
