<svg width="64" height="64" viewBox="0 0 64 64" fill="none" xmlns="http://www.w3.org/2000/svg">
<path d="M31.2739 39.8692L29.8431 37.4842C29.1823 36.3834 28.8331 35.1225 28.8331 33.8392V31.75C28.8331 29.1125 27.0731 26.8817 24.6664 26.1625V24.6667C24.6664 23.7475 23.9189 23 22.9997 23C22.0805 23 21.333 23.7475 21.333 24.6667V26.1625C18.9264 26.8817 17.1664 29.1125 17.1664 31.75V33.8392C17.1664 35.1225 16.8172 36.3825 16.1572 37.4834L14.7264 39.8684C14.6489 39.9975 14.6472 40.1575 14.7214 40.2884C14.7956 40.4192 14.9331 40.5 15.0831 40.5H30.9164C31.0664 40.5 31.2047 40.4192 31.2789 40.2892C31.3531 40.1592 31.3506 39.9975 31.2739 39.8692Z" fill="#00A6ED"/>
<path d="M20.3757 41.3333C20.8457 42.315 21.8407 43 22.9999 43C24.159 43 25.1541 42.315 25.6241 41.3333H20.3757V41.3333Z" fill="#00A6ED"/>
<circle cx="39" cy="21" r="12" fill="#EB4458"/>
<path d="M35.6414 25.5H42.2214V24.016H37.8394L40.0374 22.014C41.5354 20.642 42.2214 19.676 42.2214 18.57C42.2214 16.806 40.9894 15.574 38.9314 15.574C36.8874 15.574 35.6414 16.806 35.6414 18.71H37.4054C37.4054 17.716 37.9794 17.142 38.9314 17.142C39.8834 17.142 40.4574 17.716 40.4574 18.57C40.4574 19.228 40.0514 19.788 38.8054 20.978L35.6414 24.016V25.5Z" fill="white"/>
</svg>
