<svg width="232" height="212" viewBox="0 0 232 212" fill="none" xmlns="http://www.w3.org/2000/svg">
<g filter="url(#filter0_d_107_310)">
<rect x="22" y="21" width="192" height="172" rx="16" fill="white"/>
</g>
<path fill-rule="evenodd" clip-rule="evenodd" d="M58.0138 55.009L55.9926 52.9878L57.4536 51.526L59.4741 53.5465L58.0138 55.009ZM52.8098 60.2185L50.577 60.4218L50.775 58.2048L54.9878 53.992L57.0098 56.014L52.8098 60.2185ZM60.5527 52.5033L60.5519 52.5025L58.4984 50.449C57.9427 49.8948 56.9879 49.8685 56.4614 50.3973L49.7144 57.1443C49.4699 57.388 49.3184 57.712 49.2869 58.0548L49.0027 61.1823C48.9832 61.4035 49.0619 61.6225 49.2194 61.78C49.3612 61.9218 49.5524 61.9998 49.7497 61.9998C49.7729 61.9998 49.7954 61.999 49.8179 61.9968L52.9454 61.7125C53.2889 61.681 53.6122 61.5303 53.8559 61.2865L60.6037 54.5388C61.1497 53.9913 61.1264 53.0778 60.5527 52.5033Z" fill="#24292C"/>
<path d="M80.55 60.091C82.461 60.091 83.735 58.817 83.995 57.205H83.007C82.747 58.349 81.863 59.233 80.55 59.233C78.977 59.233 77.781 58.037 77.781 55.866V55.034C77.781 52.85 78.964 51.667 80.55 51.667C81.889 51.667 82.747 52.525 83.007 53.435H83.995C83.735 52.07 82.474 50.809 80.55 50.809C78.418 50.809 76.845 52.382 76.845 55.034V55.866C76.845 58.531 78.405 60.091 80.55 60.091ZM85.814 60H86.672V56.022C86.711 54.956 87.465 54.215 88.609 54.215C89.662 54.215 90.286 54.839 90.286 56.1V60H91.144V56.1C91.144 54.332 90.221 53.409 88.739 53.409C87.816 53.409 87.088 53.799 86.672 54.488V50.9H85.814V60ZM94.8515 60.091C95.8265 60.091 96.6585 59.597 97.1135 58.778L97.2435 60H97.9065V55.58C97.9065 54.215 97.1005 53.409 95.5665 53.409C94.0065 53.409 93.2265 54.189 93.1615 55.255H94.0845C94.1495 54.618 94.6175 54.215 95.5665 54.215C96.6195 54.215 97.0485 54.644 97.0485 55.58V56.165H95.5665C93.6165 56.165 92.8365 56.945 92.8365 58.206C92.8365 59.376 93.5515 60.091 94.8515 60.091ZM94.9165 59.285C94.1365 59.285 93.7205 58.869 93.7205 58.206C93.7205 57.452 94.2275 56.945 95.5665 56.945H97.0485V57.244C97.0485 58.349 96.1125 59.285 94.9165 59.285ZM100.045 60H100.903V56.022C100.942 54.943 101.696 54.215 102.84 54.215C103.893 54.215 104.517 54.839 104.517 56.1V60H105.375V56.1C105.375 54.332 104.452 53.409 102.97 53.409C102.008 53.409 101.241 53.825 100.812 54.566L100.708 53.5H100.045V60ZM109.681 59.831C110.578 59.831 111.293 59.493 111.735 58.817V60C111.735 61.3 111.15 61.885 109.967 61.885C108.875 61.885 108.446 61.456 108.316 60.715H107.458C107.588 61.924 108.355 62.691 109.967 62.691C111.631 62.691 112.593 61.729 112.593 60V53.5H111.93L111.826 54.566C111.397 53.799 110.63 53.409 109.681 53.409C108.199 53.409 107.133 54.475 107.133 56.334V56.906C107.133 58.791 108.173 59.831 109.681 59.831ZM109.876 59.025C108.771 59.025 108.017 58.271 108.017 56.906V56.334C108.017 54.956 108.758 54.215 109.876 54.215C110.942 54.215 111.696 54.956 111.735 56.243V57.01C111.696 58.258 110.942 59.025 109.876 59.025ZM117.202 60.091C118.801 60.091 119.672 59.22 119.932 58.102H119.048C118.788 58.778 118.281 59.285 117.202 59.285C116.045 59.285 115.291 58.531 115.291 57.036V56.997H119.997V56.464C119.997 54.514 118.892 53.409 117.202 53.409C115.512 53.409 114.407 54.514 114.407 56.464V57.036C114.407 58.999 115.499 60.091 117.202 60.091ZM117.202 54.215C118.294 54.215 119.035 54.891 119.1 56.243H115.291C115.369 54.943 116.084 54.215 117.202 54.215ZM124.288 54.28H125.458V58.284C125.458 59.402 126.056 60 127.174 60H128.188V59.22H127.278C126.641 59.22 126.316 58.895 126.316 58.18V54.28H128.058V53.5H126.316V51.68H125.458V53.5H124.288V54.28ZM129.752 60H130.61V56.022C130.649 54.956 131.403 54.215 132.547 54.215C133.6 54.215 134.224 54.839 134.224 56.1V60H135.082V56.1C135.082 54.332 134.159 53.409 132.677 53.409C131.754 53.409 131.026 53.799 130.61 54.488V50.9H129.752V60ZM139.635 60.091C141.234 60.091 142.105 59.22 142.365 58.102H141.481C141.221 58.778 140.714 59.285 139.635 59.285C138.478 59.285 137.724 58.531 137.724 57.036V56.997H142.43V56.464C142.43 54.514 141.325 53.409 139.635 53.409C137.945 53.409 136.84 54.514 136.84 56.464V57.036C136.84 58.999 137.932 60.091 139.635 60.091ZM139.635 54.215C140.727 54.215 141.468 54.891 141.533 56.243H137.724C137.802 54.943 138.517 54.215 139.635 54.215ZM149.581 60.091C151.284 60.091 152.051 59.324 152.051 58.245C152.051 55.645 148.125 56.776 148.125 55.19C148.125 54.605 148.515 54.215 149.581 54.215C150.53 54.215 150.907 54.592 151.037 55.255H151.921C151.791 54.163 151.037 53.409 149.581 53.409C148.008 53.409 147.241 54.176 147.241 55.19C147.241 57.634 151.167 56.503 151.167 58.245C151.167 58.895 150.777 59.285 149.581 59.285C148.502 59.285 148.125 58.908 147.995 58.115H147.111C147.241 59.337 147.995 60.091 149.581 60.091ZM153.094 54.28H154.264V58.284C154.264 59.402 154.862 60 155.98 60H156.994V59.22H156.084C155.447 59.22 155.122 58.895 155.122 58.18V54.28H156.864V53.5H155.122V51.68H154.264V53.5H153.094V54.28ZM160.245 60.091C161.22 60.091 162.052 59.597 162.507 58.778L162.637 60H163.3V55.58C163.3 54.215 162.494 53.409 160.96 53.409C159.4 53.409 158.62 54.189 158.555 55.255H159.478C159.543 54.618 160.011 54.215 160.96 54.215C162.013 54.215 162.442 54.644 162.442 55.58V56.165H160.96C159.01 56.165 158.23 56.945 158.23 58.206C158.23 59.376 158.945 60.091 160.245 60.091ZM160.31 59.285C159.53 59.285 159.114 58.869 159.114 58.206C159.114 57.452 159.621 56.945 160.96 56.945H162.442V57.244C162.442 58.349 161.506 59.285 160.31 59.285ZM164.532 54.28H165.702V58.284C165.702 59.402 166.3 60 167.418 60H168.432V59.22H167.522C166.885 59.22 166.56 58.895 166.56 58.18V54.28H168.302V53.5H166.56V51.68H165.702V53.5H164.532V54.28ZM172.272 60.091C173.182 60.091 173.936 59.675 174.365 58.934L174.469 60H175.132V53.5H174.274V57.4C174.274 58.518 173.507 59.285 172.402 59.285C171.414 59.285 170.79 58.661 170.79 57.4V53.5H169.932V57.4C169.932 59.168 170.855 60.091 172.272 60.091ZM179.427 60.091C181.13 60.091 181.897 59.324 181.897 58.245C181.897 55.645 177.971 56.776 177.971 55.19C177.971 54.605 178.361 54.215 179.427 54.215C180.376 54.215 180.753 54.592 180.883 55.255H181.767C181.637 54.163 180.883 53.409 179.427 53.409C177.854 53.409 177.087 54.176 177.087 55.19C177.087 57.634 181.013 56.503 181.013 58.245C181.013 58.895 180.623 59.285 179.427 59.285C178.348 59.285 177.971 58.908 177.841 58.115H176.957C177.087 59.337 177.841 60.091 179.427 60.091Z" fill="#0C1116"/>
<path d="M80.55 94.091C82.461 94.091 83.735 92.817 83.995 91.205H83.007C82.747 92.349 81.863 93.233 80.55 93.233C78.977 93.233 77.781 92.037 77.781 89.866V89.034C77.781 86.85 78.964 85.667 80.55 85.667C81.889 85.667 82.747 86.525 83.007 87.435H83.995C83.735 86.07 82.474 84.809 80.55 84.809C78.418 84.809 76.845 86.382 76.845 89.034V89.866C76.845 92.531 78.405 94.091 80.55 94.091ZM85.814 94H86.672V90.022C86.711 88.956 87.465 88.215 88.609 88.215C89.662 88.215 90.286 88.839 90.286 90.1V94H91.144V90.1C91.144 88.332 90.221 87.409 88.739 87.409C87.816 87.409 87.088 87.799 86.672 88.488V84.9H85.814V94ZM94.8515 94.091C95.8265 94.091 96.6585 93.597 97.1135 92.778L97.2435 94H97.9065V89.58C97.9065 88.215 97.1005 87.409 95.5665 87.409C94.0065 87.409 93.2265 88.189 93.1615 89.255H94.0845C94.1495 88.618 94.6175 88.215 95.5665 88.215C96.6195 88.215 97.0485 88.644 97.0485 89.58V90.165H95.5665C93.6165 90.165 92.8365 90.945 92.8365 92.206C92.8365 93.376 93.5515 94.091 94.8515 94.091ZM94.9165 93.285C94.1365 93.285 93.7205 92.869 93.7205 92.206C93.7205 91.452 94.2275 90.945 95.5665 90.945H97.0485V91.244C97.0485 92.349 96.1125 93.285 94.9165 93.285ZM100.045 94H100.903V90.022C100.942 88.943 101.696 88.215 102.84 88.215C103.893 88.215 104.517 88.839 104.517 90.1V94H105.375V90.1C105.375 88.332 104.452 87.409 102.97 87.409C102.008 87.409 101.241 87.825 100.812 88.566L100.708 87.5H100.045V94ZM109.681 93.831C110.578 93.831 111.293 93.493 111.735 92.817V94C111.735 95.3 111.15 95.885 109.967 95.885C108.875 95.885 108.446 95.456 108.316 94.715H107.458C107.588 95.924 108.355 96.691 109.967 96.691C111.631 96.691 112.593 95.729 112.593 94V87.5H111.93L111.826 88.566C111.397 87.799 110.63 87.409 109.681 87.409C108.199 87.409 107.133 88.475 107.133 90.334V90.906C107.133 92.791 108.173 93.831 109.681 93.831ZM109.876 93.025C108.771 93.025 108.017 92.271 108.017 90.906V90.334C108.017 88.956 108.758 88.215 109.876 88.215C110.942 88.215 111.696 88.956 111.735 90.243V91.01C111.696 92.258 110.942 93.025 109.876 93.025ZM117.202 94.091C118.801 94.091 119.672 93.22 119.932 92.102H119.048C118.788 92.778 118.281 93.285 117.202 93.285C116.045 93.285 115.291 92.531 115.291 91.036V90.997H119.997V90.464C119.997 88.514 118.892 87.409 117.202 87.409C115.512 87.409 114.407 88.514 114.407 90.464V91.036C114.407 92.999 115.499 94.091 117.202 94.091ZM117.202 88.215C118.294 88.215 119.035 88.891 119.1 90.243H115.291C115.369 88.943 116.084 88.215 117.202 88.215ZM127.473 94.091C128.916 94.091 129.748 93.259 130.008 92.115H129.098C128.838 92.843 128.396 93.285 127.473 93.285C126.381 93.285 125.562 92.466 125.562 91.036V90.464C125.562 89.021 126.368 88.215 127.473 88.215C128.396 88.215 128.838 88.657 129.098 89.255H130.008C129.748 88.241 128.916 87.409 127.473 87.409C125.822 87.409 124.678 88.553 124.678 90.464V91.036C124.678 92.96 125.809 94.091 127.473 94.091ZM134.101 94.091C135.817 94.091 136.961 92.947 136.961 91.036V90.464C136.961 88.54 135.83 87.409 134.101 87.409C132.385 87.409 131.241 88.553 131.241 90.464V91.036C131.241 92.96 132.372 94.091 134.101 94.091ZM134.101 93.285C132.944 93.285 132.125 92.466 132.125 91.036V90.464C132.125 89.021 132.931 88.215 134.101 88.215C135.258 88.215 136.077 89.034 136.077 90.464V91.036C136.077 92.479 135.271 93.285 134.101 93.285ZM138.779 94H139.637V90.022C139.676 88.943 140.43 88.215 141.574 88.215C142.627 88.215 143.251 88.839 143.251 90.1V94H144.109V90.1C144.109 88.332 143.186 87.409 141.704 87.409C140.742 87.409 139.975 87.825 139.546 88.566L139.442 87.5H138.779V94ZM145.349 88.28H146.519V92.284C146.519 93.402 147.117 94 148.235 94H149.249V93.22H148.339C147.702 93.22 147.377 92.895 147.377 92.18V88.28H149.119V87.5H147.377V85.68H146.519V87.5H145.349V88.28ZM150.814 94H151.672V90.022C151.711 88.943 152.465 88.215 153.674 88.215H154.324V87.409H153.674C152.751 87.409 151.997 87.825 151.581 88.566L151.477 87.5H150.814V94ZM154.711 94.091C155.127 94.091 155.426 93.779 155.426 93.376C155.426 92.986 155.127 92.661 154.711 92.661C154.295 92.661 153.996 92.986 153.996 93.376C153.996 93.779 154.295 94.091 154.711 94.091Z" fill="#0C1116"/>
<path fill-rule="evenodd" clip-rule="evenodd" d="M56.5 86.25C56.5 85.4227 55.8273 84.75 55 84.75C54.1727 84.75 53.5 85.4227 53.5 86.25C53.5 87.0773 54.1727 87.75 55 87.75C55.8273 87.75 56.5 87.0773 56.5 86.25ZM58 86.25C58 87.9045 56.6545 89.25 55 89.25C53.3455 89.25 52 87.9045 52 86.25C52 84.5955 53.3455 83.25 55 83.25C56.6545 83.25 58 84.5955 58 86.25ZM49.75 96C49.75 93.105 52.1058 90.75 55 90.75C57.8942 90.75 60.25 93.105 60.25 96C60.25 96.414 59.9148 96.75 59.5 96.75C59.0852 96.75 58.75 96.414 58.75 96C58.75 93.9323 57.0677 92.25 55 92.25C52.9323 92.25 51.25 93.9323 51.25 96C51.25 96.414 50.9147 96.75 50.5 96.75C50.0853 96.75 49.75 96.414 49.75 96Z" fill="#24292C"/>
<path d="M77.17 128H79.9C82.487 128 83.995 126.492 83.995 123.866V123.034C83.995 120.395 82.5 118.9 79.9 118.9H77.17V128ZM79.9 119.732C81.915 119.732 83.059 120.876 83.059 123.034V123.866C83.059 126.05 81.941 127.168 79.9 127.168H78.08V119.732H79.9ZM88.4109 128.091C90.1269 128.091 91.2709 126.947 91.2709 125.036V124.464C91.2709 122.54 90.1399 121.409 88.4109 121.409C86.6949 121.409 85.5509 122.553 85.5509 124.464V125.036C85.5509 126.96 86.6819 128.091 88.4109 128.091ZM88.4109 127.285C87.2539 127.285 86.4349 126.466 86.4349 125.036V124.464C86.4349 123.021 87.2409 122.215 88.4109 122.215C89.5679 122.215 90.3869 123.034 90.3869 124.464V125.036C90.3869 126.479 89.5809 127.285 88.4109 127.285ZM98.5514 128H99.5914L101.411 121.5H100.527L99.0454 126.921L97.3814 121.5H96.3414L94.7944 126.921L93.2214 121.5H92.3114L94.2614 128H95.3014L96.8614 122.514L98.5514 128ZM102.965 128H103.823V124.022C103.862 122.943 104.616 122.215 105.76 122.215C106.813 122.215 107.437 122.839 107.437 124.1V128H108.295V124.1C108.295 122.332 107.372 121.409 105.89 121.409C104.928 121.409 104.161 121.825 103.732 122.566L103.628 121.5H102.965V128ZM112.133 128H112.653V127.22H112.237C111.613 127.22 111.301 126.895 111.301 126.18V118.9H110.443V126.284C110.443 127.402 111.041 128 112.133 128ZM116.62 128.091C118.336 128.091 119.48 126.947 119.48 125.036V124.464C119.48 122.54 118.349 121.409 116.62 121.409C114.904 121.409 113.76 122.553 113.76 124.464V125.036C113.76 126.96 114.891 128.091 116.62 128.091ZM116.62 127.285C115.463 127.285 114.644 126.466 114.644 125.036V124.464C114.644 123.021 115.45 122.215 116.62 122.215C117.777 122.215 118.596 123.034 118.596 124.464V125.036C118.596 126.479 117.79 127.285 116.62 127.285ZM122.857 128.091C123.832 128.091 124.664 127.597 125.119 126.778L125.249 128H125.912V123.58C125.912 122.215 125.106 121.409 123.572 121.409C122.012 121.409 121.232 122.189 121.167 123.255H122.09C122.155 122.618 122.623 122.215 123.572 122.215C124.625 122.215 125.054 122.644 125.054 123.58V124.165H123.572C121.622 124.165 120.842 124.945 120.842 126.206C120.842 127.376 121.557 128.091 122.857 128.091ZM122.922 127.285C122.142 127.285 121.726 126.869 121.726 126.206C121.726 125.452 122.233 124.945 123.572 124.945H125.054V125.244C125.054 126.349 124.118 127.285 122.922 127.285ZM130.209 128.091C131.158 128.091 131.912 127.701 132.341 126.908L132.458 128H133.121V118.9H132.263V122.449C131.821 121.76 131.106 121.409 130.209 121.409C128.727 121.409 127.661 122.475 127.661 124.464V125.036C127.661 127.038 128.714 128.091 130.209 128.091ZM130.404 127.285C129.299 127.285 128.545 126.531 128.545 125.036V124.464C128.545 122.956 129.286 122.215 130.404 122.215C131.444 122.215 132.224 122.982 132.263 124.36V125.036C132.263 126.492 131.47 127.285 130.404 127.285ZM138.576 128H139.434V124.022C139.473 122.943 140.227 122.215 141.436 122.215H142.086V121.409H141.436C140.513 121.409 139.759 121.825 139.343 122.566L139.239 121.5H138.576V128ZM145.792 128.091C147.391 128.091 148.262 127.22 148.522 126.102H147.638C147.378 126.778 146.871 127.285 145.792 127.285C144.635 127.285 143.881 126.531 143.881 125.036V124.997H148.587V124.464C148.587 122.514 147.482 121.409 145.792 121.409C144.102 121.409 142.997 122.514 142.997 124.464V125.036C142.997 126.999 144.089 128.091 145.792 128.091ZM145.792 122.215C146.884 122.215 147.625 122.891 147.69 124.243H143.881C143.959 122.943 144.674 122.215 145.792 122.215ZM153.32 128.091C154.802 128.091 155.868 127.025 155.868 125.036V124.464C155.868 122.462 154.815 121.409 153.32 121.409C152.358 121.409 151.617 121.799 151.175 122.592L151.071 121.5H150.408V130.6H151.266V127.051C151.708 127.753 152.423 128.091 153.32 128.091ZM153.125 127.285C152.033 127.285 151.266 126.479 151.266 125.036V124.36C151.305 122.969 152.085 122.215 153.125 122.215C154.23 122.215 154.984 122.969 154.984 124.464V125.036C154.984 126.544 154.243 127.285 153.125 127.285ZM160.152 128.091C161.868 128.091 163.012 126.947 163.012 125.036V124.464C163.012 122.54 161.881 121.409 160.152 121.409C158.436 121.409 157.292 122.553 157.292 124.464V125.036C157.292 126.96 158.423 128.091 160.152 128.091ZM160.152 127.285C158.995 127.285 158.176 126.466 158.176 125.036V124.464C158.176 123.021 158.982 122.215 160.152 122.215C161.309 122.215 162.128 123.034 162.128 124.464V125.036C162.128 126.479 161.322 127.285 160.152 127.285ZM164.83 128H165.688V124.022C165.727 122.943 166.481 122.215 167.69 122.215H168.34V121.409H167.69C166.767 121.409 166.013 121.825 165.597 122.566L165.493 121.5H164.83V128ZM169.242 122.28H170.412V126.284C170.412 127.402 171.01 128 172.128 128H173.142V127.22H172.232C171.595 127.22 171.27 126.895 171.27 126.18V122.28H173.012V121.5H171.27V119.68H170.412V121.5H169.242V122.28Z" fill="#0C1116"/>
<path fill-rule="evenodd" clip-rule="evenodd" d="M54.2521 124.057C54.2507 124.038 54.25 124.019 54.25 124V118C54.25 117.586 54.5852 117.25 55 117.25C55.4148 117.25 55.75 117.586 55.75 118V124L57.55 122.65C57.8815 122.4 58.3518 122.468 58.6 122.8C58.849 123.131 58.7815 123.602 58.45 123.85L55.45 126.1C55.3173 126.2 55.1583 126.25 55 126.25C54.8493 126.25 54.6985 126.204 54.5688 126.113L51.5688 124.003C51.2298 123.764 51.148 123.296 51.3865 122.958C51.625 122.619 52.0923 122.537 52.4313 122.776L54.2521 124.057ZM50.5 127.75V128.5H59.5V127.75C59.5 127.337 59.8375 127 60.25 127C60.6625 127 61 127.337 61 127.75V129.25C61 129.663 60.6625 130 60.25 130H49.75C49.3375 130 49 129.663 49 129.25V127.75C49 127.337 49.3375 127 49.75 127C50.1625 127 50.5 127.337 50.5 127.75Z" fill="#24292C"/>
<path d="M77.17 162H79.9C82.487 162 83.995 160.492 83.995 157.866V157.034C83.995 154.395 82.5 152.9 79.9 152.9H77.17V162ZM79.9 153.732C81.915 153.732 83.059 154.876 83.059 157.034V157.866C83.059 160.05 81.941 161.168 79.9 161.168H78.08V153.732H79.9ZM88.3459 162.091C89.9449 162.091 90.8159 161.22 91.0759 160.102H90.1919C89.9319 160.778 89.4249 161.285 88.3459 161.285C87.1889 161.285 86.4349 160.531 86.4349 159.036V158.997H91.1409V158.464C91.1409 156.514 90.0359 155.409 88.3459 155.409C86.6559 155.409 85.5509 156.514 85.5509 158.464V159.036C85.5509 160.999 86.6429 162.091 88.3459 162.091ZM88.3459 156.215C89.4379 156.215 90.1789 156.891 90.2439 158.243H86.4349C86.5129 156.943 87.2279 156.215 88.3459 156.215ZM94.6514 162H95.1714V161.22H94.7554C94.1314 161.22 93.8194 160.895 93.8194 160.18V152.9H92.9614V160.284C92.9614 161.402 93.5594 162 94.6514 162ZM99.0735 162.091C100.672 162.091 101.543 161.22 101.803 160.102H100.919C100.659 160.778 100.152 161.285 99.0735 161.285C97.9165 161.285 97.1625 160.531 97.1625 159.036V158.997H101.868V158.464C101.868 156.514 100.763 155.409 99.0735 155.409C97.3835 155.409 96.2785 156.514 96.2785 158.464V159.036C96.2785 160.999 97.3705 162.091 99.0735 162.091ZM99.0735 156.215C100.165 156.215 100.906 156.891 100.971 158.243H97.1625C97.2405 156.943 97.9555 156.215 99.0735 156.215ZM102.909 156.28H104.079V160.284C104.079 161.402 104.677 162 105.795 162H106.809V161.22H105.899C105.262 161.22 104.937 160.895 104.937 160.18V156.28H106.679V155.5H104.937V153.68H104.079V155.5H102.909V156.28ZM110.779 162.091C112.378 162.091 113.249 161.22 113.509 160.102H112.625C112.365 160.778 111.858 161.285 110.779 161.285C109.622 161.285 108.868 160.531 108.868 159.036V158.997H113.574V158.464C113.574 156.514 112.469 155.409 110.779 155.409C109.089 155.409 107.984 156.514 107.984 158.464V159.036C107.984 160.999 109.076 162.091 110.779 162.091ZM110.779 156.215C111.871 156.215 112.612 156.891 112.677 158.243H108.868C108.946 156.943 109.661 156.215 110.779 156.215ZM120.204 162.091C121.179 162.091 122.011 161.597 122.466 160.778L122.596 162H123.259V157.58C123.259 156.215 122.453 155.409 120.919 155.409C119.359 155.409 118.579 156.189 118.514 157.255H119.437C119.502 156.618 119.97 156.215 120.919 156.215C121.972 156.215 122.401 156.644 122.401 157.58V158.165H120.919C118.969 158.165 118.189 158.945 118.189 160.206C118.189 161.376 118.904 162.091 120.204 162.091ZM120.269 161.285C119.489 161.285 119.073 160.869 119.073 160.206C119.073 159.452 119.58 158.945 120.919 158.945H122.401V159.244C122.401 160.349 121.465 161.285 120.269 161.285ZM128.648 162H129.506V158.022C129.545 156.943 130.299 156.215 131.508 156.215H132.158V155.409H131.508C130.585 155.409 129.831 155.825 129.415 156.566L129.311 155.5H128.648V162ZM135.864 162.091C137.463 162.091 138.334 161.22 138.594 160.102H137.71C137.45 160.778 136.943 161.285 135.864 161.285C134.707 161.285 133.953 160.531 133.953 159.036V158.997H138.659V158.464C138.659 156.514 137.554 155.409 135.864 155.409C134.174 155.409 133.069 156.514 133.069 158.464V159.036C133.069 160.999 134.161 162.091 135.864 162.091ZM135.864 156.215C136.956 156.215 137.697 156.891 137.762 158.243H133.953C134.031 156.943 134.746 156.215 135.864 156.215ZM142.638 162.091C143.535 162.091 144.25 161.753 144.692 161.051V164.6H145.55V155.5H144.887L144.77 156.592C144.341 155.799 143.587 155.409 142.638 155.409C141.156 155.409 140.09 156.475 140.09 158.464V159.036C140.09 161.038 141.143 162.091 142.638 162.091ZM142.833 161.285C141.728 161.285 140.974 160.531 140.974 159.036V158.464C140.974 156.956 141.715 156.215 142.833 156.215C143.899 156.215 144.692 157.008 144.692 158.464V159.036C144.692 160.479 143.925 161.285 142.833 161.285ZM150.029 162.091C150.939 162.091 151.693 161.675 152.122 160.934L152.226 162H152.889V155.5H152.031V159.4C152.031 160.518 151.264 161.285 150.159 161.285C149.171 161.285 148.547 160.661 148.547 159.4V155.5H147.689V159.4C147.689 161.168 148.612 162.091 150.029 162.091ZM157.51 162.091C159.109 162.091 159.98 161.22 160.24 160.102H159.356C159.096 160.778 158.589 161.285 157.51 161.285C156.353 161.285 155.599 160.531 155.599 159.036V158.997H160.305V158.464C160.305 156.514 159.2 155.409 157.51 155.409C155.82 155.409 154.715 156.514 154.715 158.464V159.036C154.715 160.999 155.807 162.091 157.51 162.091ZM157.51 156.215C158.602 156.215 159.343 156.891 159.408 158.243H155.599C155.677 156.943 156.392 156.215 157.51 156.215ZM164.206 162.091C165.909 162.091 166.676 161.324 166.676 160.245C166.676 157.645 162.75 158.776 162.75 157.19C162.75 156.605 163.14 156.215 164.206 156.215C165.155 156.215 165.532 156.592 165.662 157.255H166.546C166.416 156.163 165.662 155.409 164.206 155.409C162.633 155.409 161.866 156.176 161.866 157.19C161.866 159.634 165.792 158.503 165.792 160.245C165.792 160.895 165.402 161.285 164.206 161.285C163.127 161.285 162.75 160.908 162.62 160.115H161.736C161.866 161.337 162.62 162.091 164.206 162.091ZM167.719 156.28H168.889V160.284C168.889 161.402 169.487 162 170.605 162H171.619V161.22H170.709C170.072 161.22 169.747 160.895 169.747 160.18V156.28H171.489V155.5H169.747V153.68H168.889V155.5H167.719V156.28Z" fill="#EB5757"/>
<path fill-rule="evenodd" clip-rule="evenodd" d="M56.7854 161.214L60.0737 157.918C60.3732 157.618 60.3732 157.132 60.0737 156.832C59.7742 156.532 59.2901 156.532 58.9906 156.832L55.7024 160.129L52.4141 156.832C52.1146 156.532 51.6306 156.532 51.3311 156.832C51.0316 157.132 51.0316 157.618 51.3311 157.918L54.6193 161.214L51.3311 164.511C51.0316 164.811 51.0316 165.296 51.3311 165.596C51.4804 165.746 51.6765 165.821 51.8726 165.821C52.0687 165.821 52.2648 165.746 52.4141 165.596L55.7024 162.3L58.9906 165.596C59.14 165.746 59.3361 165.821 59.5322 165.821C59.7283 165.821 59.9243 165.746 60.0737 165.596C60.3732 165.296 60.3732 164.811 60.0737 164.511L56.7854 161.214Z" fill="#EB5757"/>
<defs>
<filter id="filter0_d_107_310" x="0" y="0" width="232" height="212" filterUnits="userSpaceOnUse" color-interpolation-filters="sRGB">
<feFlood flood-opacity="0" result="BackgroundImageFix"/>
<feColorMatrix in="SourceAlpha" type="matrix" values="0 0 0 0 0 0 0 0 0 0 0 0 0 0 0 0 0 0 127 0" result="hardAlpha"/>
<feOffset dx="-2" dy="-1"/>
<feGaussianBlur stdDeviation="10"/>
<feComposite in2="hardAlpha" operator="out"/>
<feColorMatrix type="matrix" values="0 0 0 0 0.291667 0 0 0 0 0.289236 0 0 0 0 0.289236 0 0 0 0.1 0"/>
<feBlend mode="normal" in2="BackgroundImageFix" result="effect1_dropShadow_107_310"/>
<feBlend mode="normal" in="SourceGraphic" in2="effect1_dropShadow_107_310" result="shape"/>
</filter>
</defs>
</svg>