<svg width="16" height="20" viewBox="0 0 16 20" fill="none" xmlns="http://www.w3.org/2000/svg">
<path d="M8.00002 2.72727V0L4.36366 3.63636L8.00002 7.27273V4.54545C11 4.54545 13.4546 7 13.4546 10C13.4546 10.9091 13.1818 11.8182 12.8182 12.5455L14.1818 13.9091C14.8182 12.7273 15.2727 11.4545 15.2727 10C15.2727 6 12 2.72727 8.00002 2.72727ZM8.00002 15.4545C5.00002 15.4545 2.54548 13 2.54548 10C2.54548 9.09091 2.8182 8.18182 3.18184 7.45455L1.8182 6.09091C1.18184 7.27273 0.727295 8.54545 0.727295 10C0.727295 14 4.00002 17.2727 8.00002 17.2727V20L11.6364 16.3636L8.00002 12.7273V15.4545Z" fill="#0C1116"/>
</svg>